<?xml version="1.0" encoding="utf-8"?>
<!-- Generator: Adobe Illustrator 27.5.0, SVG Export Plug-In . SVG Version: 6.00 Build 0)  -->
<svg version="1.1" id="圖層_1" xmlns="http://www.w3.org/2000/svg" xmlns:xlink="http://www.w3.org/1999/xlink" x="0px" y="0px"
	 viewBox="0 0 176.9 29.6" style="enable-background:new 0 0 176.9 29.6;" xml:space="preserve">
<style type="text/css">
	.st0{fill:#231815;}
</style>
<g transform="translate(-1.327 -214.981)">
	<path class="st0" d="M30.6,229.9V215h-6.9v14.8l-7.6,0l0-14.5L1.3,229.9h14.8v14.7l10.1,0l-4.3-7.4l4.4-7.3L30.6,229.9z"/>
	<g transform="translate(42.355 220.17)">
		<path class="st0" d="M14.1,19.3h-3.2l-1.2-4.7H4.2L3,19.3H0l5.5-19H9L14.1,19.3z M9.1,12.1L6.9,3.4l-2.2,8.7L9.1,12.1z"/>
		<path class="st0" d="M30.4,19.3H27l-4.2-9.4l-2.3,3.2v6.2h-3.1v-19h3.1v9l5.7-9h3.3l-4.9,7L30.4,19.3z"/>
		<path class="st0" d="M36.5,19.3h-3.1v-19h3.1V19.3z"/>
		<path class="st0" d="M61.1,19.5h-1.7L59,17c-0.9,1.7-2.7,2.7-4.6,2.6c-2,0.1-3.9-0.9-5-2.6c-1.3-2.1-1.9-4.6-1.8-7.1
			c0-3.2,0.6-5.7,1.9-7.4c1.2-1.7,3.2-2.7,5.3-2.6c1.5-0.1,2.9,0.4,4.1,1.4c1.1,1.2,1.8,2.8,2,4.4l-2.8,0.7c-0.2-1.1-0.6-2.1-1.2-3
			c-0.5-0.6-1.3-0.9-2.1-0.9c-2.6,0-3.9,2.4-3.9,7.2c0,4.8,1.3,7.3,3.9,7.3c2.2,0,3.2-1.6,3.2-5h-3.4V9.6h6.3L61.1,19.5z"/>
		<path class="st0" d="M75.8,19.3h-2.9L72,15.8h-3.9l-0.9,3.5h-2.7l4.3-14.4h3.1L75.8,19.3z M71.5,13.7l-1.5-5.8l-1.5,5.8H71.5z"/>
		<path class="st0" d="M87,19.3h-7.9V4.9H82V17h5L87,19.3z"/>
		<path class="st0" d="M97.7,19.3h-7.9V4.9h2.9V17h5V19.3z"/>
		<path class="st0" d="M109.1,19.3h-8.7V4.9h8.6v2.2h-5.7v3.7h4.5V13h-4.5v4.2h5.8V19.3z"/>
		<path class="st0" d="M123.2,19.3h-3.1l-2.2-5.8h-2.1v5.8H113V4.9h4.6c3.3,0,5,1.4,5,4.2c0.1,1.6-0.8,3-2.2,3.8L123.2,19.3z
			 M119.6,9.1c0-1.3-0.7-2-2.1-2h-1.6v4.2h1.6c1.1,0.1,2-0.6,2.2-1.6C119.6,9.5,119.6,9.3,119.6,9.1L119.6,9.1z"/>
		<path class="st0" d="M135.8,4.9l-4.2,8.3v6.1h-2.9v-6.1l-4-8.3h3.1l2.6,5.6l2.6-5.6H135.8z"/>
	</g>
</g>
</svg>
