<svg xmlns="http://www.w3.org/2000/svg" width="176.858" height="29.642" viewBox="0 0 176.858 29.642"><defs><style>.a{fill:#fff;}</style></defs><g transform="translate(-1.327 -214.981)"><path class="a" d="M30.645,229.88v-14.9H23.713V229.8l-7.555-.014.017-14.524L1.327,229.9H16.1v14.71l10.1.011L21.941,237.2l4.394-7.32Z"/><g transform="translate(42.355 220.17)"><path class="a" d="M78.9,242.513H75.712l-1.193-4.749h-5.55L67.8,242.513H64.814l5.491-18.977h3.53Zm-5.006-7.23L71.757,226.6l-2.16,8.679Z" transform="translate(-64.814 -223.197)"/><path class="a" d="M104.762,242.513h-3.387l-4.237-9.39-2.251,3.161v6.23H91.76V223.536h3.128v9.043l5.722-9.043h3.327L99.045,230.5Z" transform="translate(-74.346 -223.197)"/><path class="a" d="M119.589,242.513h-3.131V223.536h3.131Z" transform="translate(-83.084 -223.197)"/><path class="a" d="M152.054,242.467H150.4l-.421-2.418a5.01,5.01,0,0,1-4.553,2.619,5.74,5.74,0,0,1-4.967-2.577,12.127,12.127,0,0,1-1.8-7.07q0-4.837,1.863-7.427a6.173,6.173,0,0,1,5.337-2.582,5.721,5.721,0,0,1,4.077,1.374,7.932,7.932,0,0,1,2.036,4.4l-2.843.709a7.442,7.442,0,0,0-1.21-3.046,2.566,2.566,0,0,0-2.06-.853q-3.875,0-3.87,7.23,0,7.253,3.9,7.253c2.158,0,3.245-1.647,3.245-4.954h-3.387V232.6h6.317Z" transform="translate(-90.936 -223.011)"/><path class="a" d="M175.906,245.035h-2.9l-.914-3.5h-3.9l-.907,3.5h-2.7l4.266-14.371h3.1Zm-4.268-5.658-1.453-5.755-1.451,5.755Z" transform="translate(-100.109 -225.718)"/><path class="a" d="M195.136,245.035h-7.884V230.664h2.9v12.065h4.98Z" transform="translate(-108.128 -225.718)"/><path class="a" d="M211.606,245.035h-7.885V230.664h2.9v12.065h4.985Z" transform="translate(-113.954 -225.718)"/><path class="a" d="M228.925,245.035h-8.74V230.664h8.626v2.17h-5.72v3.719h4.466v2.161h-4.466v4.155h5.834Z" transform="translate(-119.778 -225.718)"/><path class="a" d="M249.9,245.035h-3.13l-2.193-5.833H242.5v5.833h-2.844V230.664h4.608c3.3,0,4.952,1.4,4.952,4.216a4.027,4.027,0,0,1-2.162,3.751Zm-3.618-10.191q0-2.012-2.132-2.01H242.5v4.205h1.623A1.922,1.922,0,0,0,246.279,234.845Z" transform="translate(-126.665 -225.718)"/><path class="a" d="M268.941,230.664l-4.155,8.307v6.064h-2.9v-6.064l-4.011-8.307h3.1l2.593,5.577,2.615-5.577Z" transform="translate(-133.111 -225.718)"/></g></g></svg>